# xmcd
#
# Track frame offsets:
#	150
#	22356
#	45456
#	68396
#	85363
#	111560
#	132110
#	149133
#	170163
#	172806
#	188939
#	208537
#	228424
#	229995
#	252960
#	269417
#	291272
#	294308
#
# Disc length: 4161 seconds
#
# Revision: 1
# Processed by: cddbd v1.5.2PL0 Copyright (c) Steve Scherf et al.
# Submitted via: audiograbber 1.83.01
#
DISCID=19103f12
DTITLE=SDiddy - 21 Gramm
DYEAR=2007
DGENRE=Rap
TTITLE0=2 Crazy
TTITLE1=Hook
TTITLE2=Hoffnungslos
TTITLE3=Gib mir mehr
TTITLE4=Kölsch Bloot
TTITLE5=Aus und fertig
TTITLE6=Grembranx Click
TTITLE7=Schuld
TTITLE8=Auf Nase Skit
TTITLE9=Palim Palim
TTITLE10=Der Don
TTITLE11=Bow Wow
TTITLE12=Asi Peter Skit
TTITLE13=Totentanz
TTITLE14=Promiwelt
TTITLE15=Assel Skit
TTITLE16=Wenn er geht
TTITLE17=To da Branx
EXTD=
EXTT0=
EXTT1=
EXTT2=
EXTT3=
EXTT4=
EXTT5=
EXTT6=
EXTT7=
EXTT8=
EXTT9=
EXTT10=
EXTT11=
EXTT12=
EXTT13=
EXTT14=
EXTT15=
EXTT16=
EXTT17=
PLAYORDER=
